sfk_cyclingleg_x_-0.1_y_-0.05_states
version=1
nRows=6
nColumns=53
inDegrees=yes

# SIMM Motion File Header:
name sfk_cyclingleg_x_-0.1_y_-0.05_states
datacolumns 53
datarows 6
otherdata 1
range 0.00000000 0.01756935
endheader
time	/jointset/bb/crank_angle/value	/jointset/bb/crank_angle/speed	/jointset/spindle/pedal_angle_r/value	/jointset/spindle/pedal_angle_r/speed	/jointset/ground_pelvis/pelvis_tilt/value	/jointset/ground_pelvis/pelvis_tilt/speed	/jointset/ground_pelvis/pelvis_list/value	/jointset/ground_pelvis/pelvis_list/speed	/jointset/ground_pelvis/pelvis_rotation/value	/jointset/ground_pelvis/pelvis_rotation/speed	/jointset/ground_pelvis/pelvis_tx/value	/jointset/ground_pelvis/pelvis_tx/speed	/jointset/ground_pelvis/pelvis_ty/value	/jointset/ground_pelvis/pelvis_ty/speed	/jointset/ground_pelvis/pelvis_tz/value	/jointset/ground_pelvis/pelvis_tz/speed	/jointset/hip_r/hip_angle_r/value	/jointset/hip_r/hip_angle_r/speed	/jointset/hip_r/hip_adduction_r/value	/jointset/hip_r/hip_adduction_r/speed	/jointset/hip_r/hip_rotation_r/value	/jointset/hip_r/hip_rotation_r/speed	/jointset/knee_r/knee_angle_r/value	/jointset/knee_r/knee_angle_r/speed	/jointset/knee_r/tib_tx_r/value	/jointset/knee_r/tib_tx_r/speed	/jointset/knee_r/tib_ty_r/value	/jointset/knee_r/tib_ty_r/speed	/jointset/tib_pat_r/pat_angle_r/value	/jointset/tib_pat_r/pat_angle_r/speed	/jointset/tib_pat_r/pat_tx_r/value	/jointset/tib_pat_r/pat_tx_r/speed	/jointset/tib_pat_r/pat_ty_r/value	/jointset/tib_pat_r/pat_ty_r/speed	/jointset/ankle_r/ankle_angle_r/value	/jointset/ankle_r/ankle_angle_r/speed	/jointset/subtalar_r/subtalar_angle_r/value	/jointset/subtalar_r/subtalar_angle_r/speed	/jointset/mtp_r/mtp_angle_r/value	/jointset/mtp_r/mtp_angle_r/speed	/forceset/bifemlh_r/activation	/forceset/bifemlh_r/fiber_length	/forceset/bifemsh_r/activation	/forceset/bifemsh_r/fiber_length	/forceset/glut_max2_r/activation	/forceset/glut_max2_r/fiber_length	/forceset/vas_int_r/activation	/forceset/vas_int_r/fiber_length	/forceset/med_gas_r/activation	/forceset/med_gas_r/fiber_length	/forceset/tib_ant_r/activation	/forceset/tib_ant_r/fiber_length
      0.00000000	    -10.13487855	   -480.13863232	      4.90698748	    610.30917352	      0.00000000	      0.00000000	      0.00000000	      0.00000000	     -0.00000000	     -0.00000000	     -0.10000000	     -0.00000000	     -0.05000000	     -0.00000000	     -0.00000000	     -0.00000000	     83.11760150	     29.71114921	      4.07985322	      1.45545330	     -3.79708854	     14.95839988	   -115.32184050	    145.24116858	     -0.00208257	      0.04899165	     -0.49454392	      0.04710945	     17.65061979	     -0.09817991	      0.02178358	      0.07108398	     -0.02422901	      0.01147515	     27.66764404	    -46.12268635	      0.00000000	     -0.00000000	      0.00000000	      0.00000000	      0.05000000	      0.13830650	      0.05000000	      0.14485394	      0.05000000	      0.15515169	      0.05000000	      0.16047755	      0.05000000	      0.13007159	      0.05000000	      0.11083942
      0.00111369	    -10.66960563	   -480.13863232	      5.58643180	    609.85445640	      0.00000000	      0.00000000	      0.00000000	      0.00000000	     -0.00000000	     -0.00000000	     -0.10000000	     -0.00000000	     -0.05000000	     -0.00000000	     -0.00000000	     -0.00000000	     83.14948882	     27.55222851	      4.08148548	      1.47576528	     -3.78033465	     15.12820046	   -115.15894417	    147.28997014	     -0.00202773	      0.04947546	     -0.49449105	      0.04781986	     17.65050464	     -0.10868464	      0.02186325	      0.07197151	     -0.02421616	      0.01161116	     27.61607709	    -46.48011862	      0.00000000	      0.00000000	     -0.00000000	      0.00000000	      0.04920672	      0.13830737	      0.04920672	      0.14485629	      0.04920672	      0.15515271	      0.04920672	      0.16046506	      0.04920672	      0.13007350	      0.04920672	      0.11084098
      0.00550713	    -12.77906316	   -480.13863232	      8.26178100	    608.02080972	      0.00000000	      0.00000000	      0.00000000	      0.00000000	     -0.00000000	     -0.00000000	     -0.10000000	     -0.00000000	     -0.05000000	     -0.00000000	      0.00000000	      0.00000000	     83.25176715	     18.99873541	      4.08814110	      1.55334121	     -3.71244416	     15.76971958	   -114.49431510	    155.22665484	     -0.00180639	      0.05125231	     -0.49427486	      0.05059036	     17.64992878	     -0.15462712	      0.02218695	      0.07535632	     -0.02416401	      0.01212366	     27.40900806	    -47.74418183	      0.00000000	      0.00000000	     -0.00000000	     -0.00000000	      0.04621271	      0.13832936	      0.04621271	      0.14490802	      0.04621271	      0.15517498	      0.04621271	      0.16026810	      0.04621271	      0.13012036	      0.04621271	      0.11089159
      0.00990056	    -14.88852069	   -480.13863232	     10.92895579	    606.13592146	      0.00000000	      0.00000000	      0.00000000	      0.00000000	     -0.00000000	     -0.00000000	     -0.10000000	     -0.00000000	     -0.05000000	     -0.00000000	      0.00000000	      0.00000000	     83.31637123	     10.40629432	      4.09512805	      1.62652430	     -3.64183365	     16.36655564	   -113.79533414	    162.92699651	     -0.00157770	      0.05281719	     -0.49404660	      0.05330755	     17.64913803	     -0.20601698	      0.02252512	      0.07855347	     -0.02410969	      0.01259651	     27.19689132	    -48.77882668	      0.00000000	      0.00000000	     -0.00000000	     -0.00000000	      0.04342155	      0.13838423	      0.04342155	      0.14500500	      0.04342155	      0.15521798	      0.04342155	      0.15994092	      0.04342155	      0.13021067	      0.04342155	      0.11105287
      0.01429400	    -16.99797822	   -480.13863232	     13.58776512	    604.21508765	      0.00000000	      0.00000000	      0.00000000	      0.00000000	     -0.00000000	     -0.00000000	     -0.10000000	     -0.00000000	     -0.05000000	     -0.00000000	      0.00000000	      0.00000000	     83.34318612	      1.80030946	      4.10242614	      1.69491490	     -3.56869745	     16.91965739	   -113.06304943	    170.38672712	     -0.00134260	      0.05416884	     -0.49380653	      0.05596839	     17.64811297	     -0.26120121	      0.02287691	      0.08156138	     -0.02405338	      0.01302822	     26.98072226	    -49.59000864	      0.00000000	      0.00000000	     -0.00000000	      0.00000000	      0.04081710	      0.13847114	      0.04081710	      0.14512174	      0.04081710	      0.15526804	      0.04081710	      0.15967101	      0.04081710	      0.13031765	      0.04081710	      0.11129330
      0.01756935	    -18.57060281	   -480.13863232	     15.56441699	    602.76806000	      0.00000000	      0.00000000	      0.00000000	      0.00000000	     -0.00000000	     -0.00000000	     -0.10000000	     -0.00000000	     -0.05000000	     -0.00000000	      0.00000000	      0.00000000	     83.33858206	     -4.60982609	      4.10805642	      1.74256516	     -3.51264333	     17.30426681	   -112.49608715	    175.78955402	     -0.00116372	      0.05503772	     -0.49362002	      0.05791365	     17.64718704	     -0.30447217	      0.02314755	      0.08368032	     -0.02401022	      0.01332246	     26.81750568	    -50.05368336	      0.00000000	      0.00000000	     -0.00000000	      0.00000000	      0.03898820	      0.13855149	      0.03898820	      0.14521694	      0.03898820	      0.15530366	      0.03898820	      0.15939301	      0.03898820	      0.13040160	      0.03898820	      0.11148400
